<mxfile host="65bd71144e">
    <diagram id="qHPpr8sm0H6_CKJrOfJE" name="ページ1">
        <mxGraphModel dx="642" dy="652" grid="0" gridSize="10" guides="1" tooltips="1" connect="1" arrows="1" fold="1" page="1" pageScale="1" pageWidth="827" pageHeight="1169" background="#ffffff" math="0" shadow="0">
            <root>
                <mxCell id="0"/>
                <mxCell id="1" parent="0"/>
                <mxCell id="21" value="Subnet" style="outlineConnect=0;gradientColor=none;html=1;whiteSpace=wrap;fontSize=12;fontStyle=0;shape=mxgraph.aws4.group;grIcon=mxgraph.aws4.group_subnet;strokeColor=#879196;fillColor=none;verticalAlign=top;align=left;spacingLeft=30;fontColor=#879196;dashed=0;" vertex="1" parent="1">
                    <mxGeometry x="590" y="55" width="170" height="365" as="geometry"/>
                </mxCell>
                <mxCell id="19" value="VPC" style="outlineConnect=0;gradientColor=none;html=1;whiteSpace=wrap;fontSize=12;fontStyle=0;shape=mxgraph.aws4.group;grIcon=mxgraph.aws4.group_vpc;strokeColor=#879196;fillColor=none;verticalAlign=top;align=left;spacingLeft=30;fontColor=#879196;dashed=0;" vertex="1" parent="1">
                    <mxGeometry x="250" y="20" width="520" height="410" as="geometry"/>
                </mxCell>
                <mxCell id="20" value="Subnet" style="outlineConnect=0;gradientColor=none;html=1;whiteSpace=wrap;fontSize=12;fontStyle=0;shape=mxgraph.aws4.group;grIcon=mxgraph.aws4.group_subnet;strokeColor=#879196;fillColor=none;verticalAlign=top;align=left;spacingLeft=30;fontColor=#879196;dashed=0;" vertex="1" parent="1">
                    <mxGeometry x="260" y="55" width="310" height="365" as="geometry"/>
                </mxCell>
                <mxCell id="31" style="edgeStyle=orthogonalEdgeStyle;rounded=0;orthogonalLoop=1;jettySize=auto;html=1;" edge="1" parent="1" source="22" target="23">
                    <mxGeometry relative="1" as="geometry"/>
                </mxCell>
                <mxCell id="22" value="Amazon ECS" style="outlineConnect=0;fontColor=#232F3E;gradientColor=none;strokeColor=#ffffff;fillColor=#232F3E;dashed=0;verticalLabelPosition=middle;verticalAlign=bottom;align=center;html=1;whiteSpace=wrap;fontSize=10;fontStyle=1;spacing=3;shape=mxgraph.aws4.productIcon;prIcon=mxgraph.aws4.ecs;" vertex="1" parent="1">
                    <mxGeometry x="420" y="280" width="80" height="100" as="geometry"/>
                </mxCell>
                <mxCell id="33" style="edgeStyle=orthogonalEdgeStyle;rounded=0;orthogonalLoop=1;jettySize=auto;html=1;startArrow=classic;startFill=1;" edge="1" parent="1" source="23" target="25">
                    <mxGeometry relative="1" as="geometry">
                        <Array as="points">
                            <mxPoint x="580" y="160"/>
                            <mxPoint x="580" y="238"/>
                        </Array>
                    </mxGeometry>
                </mxCell>
                <mxCell id="23" value="AWS Fargate" style="outlineConnect=0;fontColor=#232F3E;gradientColor=none;strokeColor=#ffffff;fillColor=#232F3E;dashed=0;verticalLabelPosition=middle;verticalAlign=bottom;align=center;html=1;whiteSpace=wrap;fontSize=10;fontStyle=1;spacing=3;shape=mxgraph.aws4.productIcon;prIcon=mxgraph.aws4.fargate;" vertex="1" parent="1">
                    <mxGeometry x="420" y="110" width="80" height="100" as="geometry"/>
                </mxCell>
                <mxCell id="30" style="edgeStyle=orthogonalEdgeStyle;rounded=0;orthogonalLoop=1;jettySize=auto;html=1;" edge="1" parent="1" source="24" target="23">
                    <mxGeometry relative="1" as="geometry">
                        <Array as="points">
                            <mxPoint x="400" y="238"/>
                            <mxPoint x="400" y="160"/>
                        </Array>
                    </mxGeometry>
                </mxCell>
                <mxCell id="24" value="Application Load Balancer" style="outlineConnect=0;fontColor=#232F3E;gradientColor=none;strokeColor=#ffffff;fillColor=#232F3E;dashed=0;verticalLabelPosition=middle;verticalAlign=bottom;align=center;html=1;whiteSpace=wrap;fontSize=10;fontStyle=1;spacing=3;shape=mxgraph.aws4.productIcon;prIcon=mxgraph.aws4.application_load_balancer;" vertex="1" parent="1">
                    <mxGeometry x="304" y="180.25" width="70" height="114.5" as="geometry"/>
                </mxCell>
                <mxCell id="26" value="" style="outlineConnect=0;fontColor=#232F3E;gradientColor=none;strokeColor=#232F3E;fillColor=#ffffff;dashed=0;verticalLabelPosition=bottom;verticalAlign=top;align=center;html=1;fontSize=12;fontStyle=0;aspect=fixed;shape=mxgraph.aws4.resourceIcon;resIcon=mxgraph.aws4.postgresql_instance;" vertex="1" parent="1">
                    <mxGeometry x="680" y="150" width="60" height="60" as="geometry"/>
                </mxCell>
                <mxCell id="25" value="Amazon RDS" style="outlineConnect=0;fontColor=#232F3E;gradientColor=none;strokeColor=#ffffff;fillColor=#232F3E;dashed=0;verticalLabelPosition=middle;verticalAlign=bottom;align=center;html=1;whiteSpace=wrap;fontSize=10;fontStyle=1;spacing=3;shape=mxgraph.aws4.productIcon;prIcon=mxgraph.aws4.rds;" vertex="1" parent="1">
                    <mxGeometry x="635" y="187.5" width="80" height="100" as="geometry"/>
                </mxCell>
                <mxCell id="36" style="edgeStyle=orthogonalEdgeStyle;rounded=0;orthogonalLoop=1;jettySize=auto;html=1;startArrow=none;startFill=0;" edge="1" parent="1" source="34" target="24">
                    <mxGeometry relative="1" as="geometry"/>
                </mxCell>
                <mxCell id="34" value="Amplify" style="outlineConnect=0;fontColor=#232F3E;gradientColor=none;strokeColor=#ffffff;fillColor=#232F3E;dashed=0;verticalLabelPosition=middle;verticalAlign=bottom;align=center;html=1;whiteSpace=wrap;fontSize=10;fontStyle=1;spacing=3;shape=mxgraph.aws4.productIcon;prIcon=mxgraph.aws4.ec2;" vertex="1" parent="1">
                    <mxGeometry x="100" y="320" width="80" height="100" as="geometry"/>
                </mxCell>
                <mxCell id="38" style="edgeStyle=orthogonalEdgeStyle;rounded=0;orthogonalLoop=1;jettySize=auto;html=1;startArrow=none;startFill=0;" edge="1" parent="1" source="37" target="34">
                    <mxGeometry relative="1" as="geometry"/>
                </mxCell>
                <mxCell id="37" value="" style="outlineConnect=0;gradientColor=none;fontColor=#545B64;strokeColor=none;fillColor=#879196;dashed=0;verticalLabelPosition=bottom;verticalAlign=top;align=center;html=1;fontSize=12;fontStyle=0;aspect=fixed;shape=mxgraph.aws4.illustration_users;pointerEvents=1" vertex="1" parent="1">
                    <mxGeometry x="90" y="100" width="100" height="100" as="geometry"/>
                </mxCell>
                <mxCell id="40" style="edgeStyle=orthogonalEdgeStyle;rounded=0;orthogonalLoop=1;jettySize=auto;html=1;startArrow=none;startFill=0;" edge="1" parent="1" source="39" target="22">
                    <mxGeometry relative="1" as="geometry"/>
                </mxCell>
                <mxCell id="41" style="edgeStyle=orthogonalEdgeStyle;rounded=0;orthogonalLoop=1;jettySize=auto;html=1;startArrow=none;startFill=0;" edge="1" parent="1" source="39" target="34">
                    <mxGeometry relative="1" as="geometry"/>
                </mxCell>
                <mxCell id="39" value="" style="shape=image;imageAspect=0;aspect=fixed;verticalLabelPosition=bottom;verticalAlign=top;image=data:image/png,iVBORw0KGgoAAAANSUhEUgAAAHgAAAB4CAYAAAA5ZDbSAAAAGXRFWHRTb2Z0d2FyZQBBZG9iZSBJbWFnZVJlYWR5ccllPAAAAyRpVFh0WE1MOmNvbS5hZG9iZS54bXAAAAAAADw/eHBhY2tldCBiZWdpbj0i77u/IiBpZD0iVzVNME1wQ2VoaUh6cmVTek5UY3prYzlkIj8+IDx4OnhtcG1ldGEgeG1sbnM6eD0iYWRvYmU6bnM6bWV0YS8iIHg6eG1wdGs9IkFkb2JlIFhNUCBDb3JlIDUuMy1jMDExIDY2LjE0NTY2MSwgMjAxMi8wMi8wNi0xNDo1NjoyNyAgICAgICAgIj4gPHJkZjpSREYgeG1sbnM6cmRmPSJodHRwOi8vd3d3LnczLm9yZy8xOTk5LzAyLzIyLXJkZi1zeW50YXgtbnMjIj4gPHJkZjpEZXNjcmlwdGlvbiByZGY6YWJvdXQ9IiIgeG1sbnM6eG1wPSJodHRwOi8vbnMuYWRvYmUuY29tL3hhcC8xLjAvIiB4bWxuczp4bXBNTT0iaHR0cDovL25zLmFkb2JlLmNvbS94YXAvMS4wL21tLyIgeG1sbnM6c3RSZWY9Imh0dHA6Ly9ucy5hZG9iZS5jb20veGFwLzEuMC9zVHlwZS9SZXNvdXJjZVJlZiMiIHhtcDpDcmVhdG9yVG9vbD0iQWRvYmUgUGhvdG9zaG9wIENTNiAoTWFjaW50b3NoKSIgeG1wTU06SW5zdGFuY2VJRD0ieG1wLmlpZDpFNTE3OEEzMjk5QTAxMUUyOUExNUJDMTA0NkE4OTA0RCIgeG1wTU06RG9jdW1lbnRJRD0ieG1wLmRpZDoyQTQxNEFCQzk5QTExMUUyOUExNUJDMTA0NkE4OTA0RCI+IDx4bXBNTTpEZXJpdmVkRnJvbSBzdFJlZjppbnN0YW5jZUlEPSJ4bXAuaWlkOkU1MTc4QTMwOTlBMDExRTI5QTE1QkMxMDQ2QTg5MDREIiBzdFJlZjpkb2N1bWVudElEPSJ4bXAuZGlkOkU1MTc4QTMxOTlBMDExRTI5QTE1QkMxMDQ2QTg5MDREIi8+IDwvcmRmOkRlc2NyaXB0aW9uPiA8L3JkZjpSREY+IDwveDp4bXBtZXRhPiA8P3hwYWNrZXQgZW5kPSJyIj8+R7ClIwAADR5JREFUeNrsnQuwVWUVx79zeWUXNWB4RIhXCCNUVLiCQJoBlqCIYaIBUpRGltMICE6JxojSjIKlhTmkgmjkoClqcBkTHeSNIAooQkTIw3gooAKCXL39/+x1bvtezjl373P22nufc741s2ZzmXu/x/rt/T3Xt75EVVWVsVK4kiiESrRs3qI1Hp2hX4e2g5ZBW0GbiTaGNqr1Z0ehB6Efiu6CboVugW6Grt29d8/7FnD4ML+MRw9oL9FyaFOl7PZBV0GXiC4D9MMWcPBQ2+IxCNoP+u0UX2NYwq9+IbQC+hxgv2cBZw+1BR5DoddCu8e0mCugs6FPAvYeC9gb2D54jIReBW2QJy3hMejz0IcBeoEFfCLU+nhcBx0rg6V8lrXQ+6BPAXZlUQMWsMOg46HtC2yG8m/o3dJ8VxYdYMC9HI/J0I4FPhXdCB0DyHOLAjDAnonHA9DLimzNYT70FoDeWJCAAbaB9LF3RjjNiVo4zbqLfTRAHysYwIDbCY9Z0HONFcpb0CGA/E5eAwZYpv8L6Wu/ZLnWkCPSok0F6Kq8Awy4XP99DHqNZZlRnoGOAOSDeQMYcDvgMQfayfLzJBugAwH5X7EHDLjfMs6qTlPLzZfsE8iLg0y0JGC4g/FYYOFmJbTZArFhYFIvQLgj8JgJrW9Z5cTj6salpTsOHT60JjaAAfcmPKaZAnEgiFhow4GAvAeQV0UOWL7caZZL4HI5IG/P9UuulyPcwdIs2y9XRwYA8ruA/Hboo2gZLXNA1dByUJXPoH2yHV0nsoTLee5yO1oOdQp1YTbz5EQWcLlCtRL6TWv3UIWLId38rniV+ITLF2K6hRuJ0ObThYHOIAsd/s143JpjQQ9AOWigLzK3DQt9E4L1ZdO6A1qaY3259PsBBl0rA2+iZcvvDZP7Xu4Vbu8GpNuGgwjjOAAMhJ6U50A/Nc5SLTf4F6CuO1x1HYDHCzmmzz3lrkj37cAAy2b96yb3/VwOFlql2+xGPqcYx0eLXpX55ny3DvqwcXywPs5gx93QJjnmxf3kC7w4DXjtg8eZYDbrKzIVioaBPgRlXnRyX5EHYNlc9kOZO0vZP85QP9a9IoA8aZ/bAhlk4a37Bh53BGSM17z+IozBJo5HVK42znmhuAnL9AOZvsz38XeLAsp/vLDJKF42Bh40wflQ+VpbFU+HZ1GRuTK4uyNDWd6Twdu70J3Q90U5mDskfeNR+d1G0tdz0MPDaa1Fv2YcL8+zoKdn6AMnQe9F+Y5kYYPXA7JlI2Hzvaz7YHFt/UdABWLzVJqLs5kssDwKPRu6VFoEfhHrgvaIkPn+OVCu2F1snINufIFuyMUzUvphvnBBndq4IpNLbiJDQepLhc4MqCDbUJDTAzA8y5xAWl+E2R4j3xJpVb4IIK3teLQJqGicgnVK51yfqYkeFiBcyq4gEpFmO/RT6wG/UP8NEHAHYTXD8yBLmpHxCvNDK44EfcaYA66GfkbRPAjW3nLIGyGra/0AvlWhENYv+v+isVo31hNgfOp9jc4q0umWa7W0VUjzHGFX5xf8c62BKApwcrGTFRu0VEr+poyAJWzClUqZc3rTxX68x22g5eI0QBim/YKHGd2wCX0tX1UbNBCGaQEPVq7cAMtX3QaDUwLGp80AYtrRbO62fNVt0B0s26f6gq9Sznji7r17nil2umKDu5SzGZgKcD/FDJeHUKl8koliEy3p7x7ZJsMD0ttCI7TC55yj4c3dYLnWmLFwW5JeIBpnubil2ZRhF5NfcC+jFzdjqoWbsqnmvvVUpeQbCdPqJrqnUkbcEL/H4kwrk8RGGtLTDbiXUiZPxDWGY0y+YtrmCaXka3zBXZUyecRijMxGx5km0NnTD2mHQgZb8IbaLUdvAy6GPWynkHQbfsFa/sfzLDrPUqGUbmcC7qCU+GLLLXJbdSDgMqXEV1pukduqTAswXWO3WW6ehbaq1ALcSiHh7RhgfW65eZ4uEe5OhaRbEXAzhYQ/sdh8ywGFNJtpAf7I8vItB7UAa/hJ1bO8fIvGpsPJBKwRJaex5eVbNNyKG5YoFbbU8vItp2gkqgXYxs6Kic20ALfyGw2mmEVOLrbQAlyp9Da2tug8C22l4a5cWaI4pTnDcvMs7ZTS/ahEaYKtWehCFK2P4QAB71VKvNxy8ywXKKW7l4B3KiXe03KL3FY7NQGfJ+64VjKPoLlm0FkT8GalxLlc2dsirFN6G72l3c0EvEmx8IMsvzrl+4ppb0pIMNDtShlw25CxKQ9bjimbZ3ZhjD6kdTD+tBKJhvqhUgYs+FCLMq0MVYS7j2yTS5WrFSsxOhlEzEqNr5fbg6MVszgeNjJp+KWKGfGQ1Y8s0hPkeqN7+/kyN+AlypWZJLGgrZjquNiTlLNZ7AbMH44qZkbHvvst2mr5g9FxdkzK0RqAJSzuIuVK/RRv7hD79bZgkJQRytksSoY6dg9+Xgyhfo+ggj2KGC5P/IVxDWB1CGg34OdDyJgh/Oajot2LEC7rPM+Ec+nInBMA45NmxPQwjptwgPESKvzdIoLL+Cf/NEp+V7VkpbA84Qum/DWkOrOiFaj4BGi9AgZbD8qwSXMVFzRqyyz3D7UB/80454rCEOb9W+hCGOHcAoTbRaaft5vwbmc9JgxTA8anvdfdfockHHishkH+BG1bAGDPgP7FOCtJYY815tQOmZFIUcBL8HjV54oJR21MmNECuHnNLbD6Wb6B7Cb+jIKuzCOotONFxonUy1CCUXU7vWG3VzMClgLzCrvzPSTI20NOrX2SEH/fHI9R0DEme39fhl56Sl6eNXJXQ6z6V+Pc68SgY4yQH7WT4Vuw0Xm1/zORYTLuNfrLb5Dw72r9/SJZSZkpX+T5ORae18G9Jq0F7x1ajzwPhAyU26q8zqdcWinC/UqM3rnrYZMnvQJm88pAXV6DqDwAvQ0ZHHXN+RhprUJcUmYbV3i9gITbnAxewuvvfh30NTtyMcmD0o/SQ/TUGPcStEPHVFfrZLo3iTtAM3xkwhdiCDJZ40qD3gq3SBPG5vbigCvGLuIid54BQ+4qI+FGJt4yAjaYkW6qkk7YRK/zkQm3vpbAKO6r1ugOxGtp2TcMMsGHaxqjBVdmFdwnHxdzuOulK0wpdV1txxUYv+GQeD9SXxhnaYr0+sukP5BBBbSL9g1oMpjiix7XW8/7syvMtNiQ6Q2uMP7vLuRa69/ddwewH4ZyqY59xOMBVey+MK63kxnCvTGFOy8T3DoBi7AP9btXzL1Od4g+TnHYn02U9DbmWDE68z0boiEZxPtIzOCSya/q+qUSD28wR2h3ZlGAAdIkG/Gq5IrVOJne8N6CXBzuX0E6oV2VJzebvhIzwBOEjcn1C6bQG2NVFoWY4rq1cwN0oUybOJfk1bXvZFm5pREYNE6R+zj4m+zlF0s8vsHsO4cZ/xdMdjQn3jLC+3i54/FH4xy6mgL9zEeaHJm/FIFR4xLUnAyGpbtONtsv2MilyKOymcrU+vll6Z8/ZdMN5T2JXOa7XeactZ3kPzCOOxH77wtlQv9mBIbdGhPAoyRavCfxvY2FJpbLYX6d2XuiUMvSpEe402ShZCx9ifB/TYyzf7ofP38iv1cuCyYvsqkP26rIvwyP/0QMdxbq7sv22Tikj4Su9fk392fY2OdLxrXqm6Fnyf/xanVueKwQ2EZeArYGN0Zk3IMRw10ntjeqgPEGcXmQ9xv6OTjOpnVCmvS24HGacc4wrXb1M9vki0lO0XgX0GXQn0Rk4MoI4bKbulJG874ka08D8Y5cYPw5kf0ShXzI5KGgvtw52h/RoCrlyqBWE5388pZJn+hnNWkqDDVZdmryTaIoM207JFu4OQEWyC/gMdwnZPajbwDypXkGuDQCuMNh45xcqAJxBpOtxceyeGHoljPdOL5Euzzm9VU89oQdjzrkUTThjkQdc76RJRGgATh8n5lDq8Blt/Uy3zwg82GWj+GOuXFRJqPrptAmEXh0hAU4+eUG4sIcWAhbFghGYFC12SY77/32xrsHSdw34HMZUF0nXV8gEujBbBSMW4vfMY6HpaacVIBwabM+QcINHLBApo9UN+ibxopX4cJRt3SrfbECLJB5NoabCo9bdnUKXaN6us8TxR6wQD4E/TH+eYNxnOOs1BTa5EbYaLisDpq8AuwC/ahxnO5WWKbVQlt0CWIaFDlggcxoevToGG387ykX2iiZ26O9YJNNYWQYWngjLkxAf28c78TnihAu69wJNpgS5iJN6PGrOJiA0ke6j3G2BAtd6Ld9KesM3Rp25pEFKENl6cTGTfwfGv/uMPkQkmmD1K0cdX05qkJEGoGOJwahPNLCQ108drnc45/ui6C4Xl2HV0hdzmbdwvDdziSxuxmlZfMWdA5InrNNtWK1GkYrj6hs9Cztmgb+08Y517w0TvaM7dU3ssF+jXH8v3pIWXm4+WdaiwIeylSGB0/vX2KcTQG2ONwUeBpl2h9HOyaqqqqMlcIVGwW2wOV/AgwA+MQnGo+UarEAAAAASUVORK5CYII=;" vertex="1" parent="1">
                    <mxGeometry x="270" y="460" width="80" height="80" as="geometry"/>
                </mxCell>
                <mxCell id="42" value="&lt;font color=&quot;#000000&quot;&gt;GitHub&lt;/font&gt;" style="text;html=1;align=center;verticalAlign=middle;resizable=0;points=[];autosize=1;strokeColor=none;strokeWidth=1;fontStyle=1" vertex="1" parent="1">
                    <mxGeometry x="280" y="540" width="60" height="20" as="geometry"/>
                </mxCell>
                <mxCell id="43" value="&lt;b&gt;&lt;font color=&quot;#000000&quot;&gt;GitHub Actionsによるデプロイ&lt;/font&gt;&lt;/b&gt;" style="text;html=1;align=center;verticalAlign=middle;resizable=0;points=[];autosize=1;strokeColor=none;" vertex="1" parent="1">
                    <mxGeometry x="400" y="510" width="190" height="20" as="geometry"/>
                </mxCell>
                <mxCell id="44" value="&lt;b&gt;&lt;font color=&quot;#000000&quot;&gt;Auto Deploymentによるデプロイ&lt;/font&gt;&lt;/b&gt;" style="text;html=1;align=center;verticalAlign=middle;resizable=0;points=[];autosize=1;strokeColor=none;" vertex="1" parent="1">
                    <mxGeometry x="40" y="510" width="200" height="20" as="geometry"/>
                </mxCell>
            </root>
        </mxGraphModel>
    </diagram>
</mxfile>
